:SAMPLES-PER-SECOND 30
:FULLY-SPECIFIED
:DEGREES
17
root  -71.6507 33.3976 2.28205 -175.681 85.2266 -174.97
RightUpLeg  -33.8289 -3.76762 3.90501
RightLeg  69.4801 9.18034 -4.61623
RightFoot  -21.3298 0.0270261 0.2936
RightToes  1.86264e-009 -3.18055e-015 8.94531e-016
Spine  40.5364 -0.371815 4.61993
Spine1  11.9502 2.67596 -3.70303
HEad  -52.308 -5.68222 8.89343
LeftShoulder1  0 -2.69403e-036 -1.28585e-037
LeftArm  10.6435 24.6415 -82.354
LeftForeArm  -25.5731 -16.6583 -0.826855
LeftHand  1.00361 7.28861 -4.9925
RightShoulder  -2.48481e-017 0 -8.08114e-019
RightArm  21.2408 8.97321 75.6037
RightForeArm  -39.3745 22.8626 -22.2421
RightHand  1.72525 -12.527 -9.05071
LeftUpLeg  -50.8856 -6.46462 -0.0409268
LeftLeg  37.6613 -5.35864 4.47716
LeftFoot  2.60077 0.878898 -6.21219
LeftToes  -3.27418e-010 -1.10613e-010 -1.08532e-012
18
root  -70.7003 32.2765 2.07202 177.66 85.9828 178.369
RightUpLeg  -35.4239 -3.5471 2.8809
RightLeg  76.4746 9.94645 -4.34924
RightFoot  -23.3531 0.181174 1.94952
RightToes  1.86264e-009 -3.18055e-015 8.94531e-016
Spine  43.2261 -0.357259 4.70511
Spine1  12.2754 3.41217 -5.10401
HEad  -54.3035 -6.10451 9.00507
LeftShoulder1  0 -2.69403e-036 -1.28585e-037
LeftArm  13.4577 24.5577 -82.001
LeftForeArm  -27.1257 -17.603 0.117868
LeftHand  0.97876 6.99523 -5.57092
RightShoulder  -2.48481e-017 0 -8.08114e-019
RightArm  20.5778 14.1693 74.2576
RightForeArm  -38.2624 21.5017 -21.3915
RightHand  1.8202 -12.8284 -9.74751
LeftUpLeg  -54.4187 -6.70906 -0.580353
LeftLeg  43.74 -5.85295 5.4589
LeftFoot  3.27574 0.706983 -4.76519
LeftToes  -3.27418e-010 -1.10613e-010 -1.08532e-012
19
root  -69.6631 30.9646 1.84613 165.917 86.4454 166.507
RightUpLeg  -36.5408 -3.33788 1.56243
RightLeg  83.4628 10.6297 -3.96084
RightFoot  -26.7669 0.41015 3.35625
RightToes  1.86264e-009 -3.18055e-015 8.94531e-016
Spine  45.3512 -0.320187 4.97457
Spine1  12.5848 4.06435 -6.36317
HEad  -55.9365 -6.94784 9.44914
LeftShoulder1  0 -2.69403e-036 -1.28585e-037
LeftArm  17.9929 23.5766 -81.5537
LeftForeArm  -28.9325 -18.7034 1.27461
LeftHand  0.954072 6.6277 -6.66697
RightShoulder  -2.48481e-017 0 -8.08114e-019
RightArm  17.6248 18.6278 72.5795
RightForeArm  -35.3282 20.2938 -19.6308
RightHand  1.8436 -12.7774 -10.3226
LeftUpLeg  -58.5887 -6.84299 -1.50832
LeftLeg  52.8726 -6.97883 6.70293
LeftFoot  1.853 0.358422 -2.61093
LeftToes  -3.27418e-010 -1.10613e-010 -1.08532e-012
20
root  -68.5949 29.5513 1.6303 150.097 86.2666 150.467
RightUpLeg  -37.1676 -3.04031 -0.139136
RightLeg  90.2764 11.2023 -3.64205
RightFoot  -30.8448 0.800849 5.04807
RightToes  1.86264e-009 -3.18055e-015 8.94531e-016
Spine  47.6644 -0.383372 5.33333
Spine1  12.1672 4.60335 -7.70565
HEad  -57.3375 -8.19785 9.93766
LeftShoulder1  0 -2.69403e-036 -1.28585e-037
LeftArm  23.2669 21.914 -81.0236
LeftForeArm  -31.9149 -20.0443 2.9631
LeftHand  0.943342 6.35433 -7.77164
RightShoulder  -2.48481e-017 0 -8.08114e-019
RightArm  11.6533 21.9999 70.5852
RightForeArm  -29.8354 19.4359 -17.2099
RightHand  1.83728 -12.5532 -10.9878
LeftUpLeg  -62.8042 -6.93439 -3.0038
LeftLeg  61.887 -8.25534 7.85928
LeftFoot  -0.93751 0.0511035 -0.477297
LeftToes  -3.27418e-010 -1.10613e-010 -1.08532e-012
21
root  -67.5693 28.1397 1.4366 136.393 85.3633 136.497
RightUpLeg  -37.6707 -2.54348 -2.24061
RightLeg  97.0517 11.6838 -3.23161
RightFoot  -33.763 1.35199 7.34672
RightToes  1.86264e-009 -3.18055e-015 8.94531e-016
Spine  50.1432 -0.616289 5.54956
Spine1  11.5403 5.00057 -9.20674
HEad  -58.6376 -9.7333 10.3208
LeftShoulder1  0 -2.69403e-036 -1.28585e-037
LeftArm  27.7337 19.7655 -80.6477
LeftForeArm  -36.2756 -21.6195 5.65771
LeftHand  0.928123 6.10908 -7.91824
RightShoulder  -2.48481e-017 0 -8.08114e-019
RightArm  5.03242 24.5392 68.512
RightForeArm  -24.0011 18.595 -15.0063
RightHand  1.8579 -12.5033 -11.5342
LeftUpLeg  -66.6775 -6.97373 -5.09837
LeftLeg  69.8469 -9.60717 8.58549
LeftFoot  -4.04059 -0.107238 1.16892
LeftToes  -3.27418e-010 -1.10613e-010 -1.08532e-012
22
root  -66.592 26.7481 1.2581 129.674 84.1849 129.49
RightUpLeg  -38.2994 -1.98107 -4.34566
RightLeg  103.918 12.0153 -2.54791
RightFoot  -34.4903 1.88237 9.91379
RightToes  1.86264e-009 -3.18055e-015 8.94531e-016
Spine  52.2537 -0.958777 5.86779
Spine1  11.484 5.33994 -10.5202
HEad  -59.8108 -11.4204 10.7524
LeftShoulder1  0 -2.69403e-036 -1.28585e-037
LeftArm  31.4849 17.0637 -80.8116
LeftForeArm  -42.1681 -23.286 9.70526
LeftHand  0.902341 5.91636 -6.98984
RightShoulder  -2.48481e-017 0 -8.08114e-019
RightArm  -1.40947 26.9256 66.2218
RightForeArm  -17.5841 17.3322 -12.454
RightHand  1.88073 -12.5866 -11.6414
LeftUpLeg  -70.1545 -6.92832 -7.3237
LeftLeg  77.2719 -10.9942 8.99911
LeftFoot  -7.44846 -0.127427 2.01787
LeftToes  -3.27418e-010 -1.10613e-010 -1.08532e-012
23
root  -65.6457 25.3881 1.0902 127.638 83.1832 127.173
RightUpLeg  -38.834 -1.6952 -6.10879
RightLeg  110.447 12.2336 -1.93866
RightFoot  -33.6214 2.18989 12.0224
RightToes  1.86264e-009 -3.18055e-015 8.94531e-016
Spine  54.0286 -1.28173 6.43978
Spine1  11.7333 5.69527 -11.3587
HEad  -60.7697 -13.0598 11.4202
LeftShoulder1  0 -2.69403e-036 -1.28585e-037
LeftArm  34.3827 13.9471 -81.5893
LeftForeArm  -48.2758 -24.9891 14.5779
LeftHand  0.892724 6.00489 -5.6131
RightShoulder  -2.48481e-017 0 -8.08114e-019
RightArm  -7.96664 29.4908 63.5472
RightForeArm  -9.5395 15.0246 -9.08324
RightHand  1.83379 -12.4774 -11.1986
LeftUpLeg  -73.2857 -6.89286 -9.21559
LeftLeg  84.3257 -12.3532 9.37495
LeftFoot  -11.3156 -0.0732042 2.0605
LeftToes  -3.27418e-010 -1.10613e-010 -1.08532e-012
24
root  -64.7265 24.1322 0.929118 126.717 82.4654 125.875
RightUpLeg  -38.996 -1.8462 -7.55404
RightLeg  115.952 12.532 -1.80335
RightFoot  -32.3244 2.25156 13.1949
RightToes  1.86264e-009 -3.18055e-015 8.94531e-016
Spine  55.6939 -1.51602 7.0022
Spine1  11.7795 6.02177 -11.8389
HEad  -61.6565 -14.4165 12.3499
LeftShoulder1  0 -2.69403e-036 -1.28585e-037
LeftArm  32.4471 10.6606 -82.4598
LeftForeArm  -48.8897 -27.5414 17.7035
LeftHand  0.891303 6.21371 -3.80432
RightShoulder  -2.48481e-017 0 -8.08114e-019
RightArm  -12.9149 32.1072 60.996
RightForeArm  -2.43842 11.6862 -6.05453
RightHand  1.69299 -12.0396 -10.1582
LeftUpLeg  -76.1156 -6.94381 -10.7143
LeftLeg  90.6132 -13.6168 9.65487
LeftFoot  -15.1055 -0.0175254 1.83245
LeftToes  -3.27418e-010 -1.10613e-010 -1.08532e-012
25
root  -63.8148 23.0333 0.762499 125.825 82.1227 124.288
RightUpLeg  -38.8249 -2.24643 -8.80397
RightLeg  120.285 12.7663 -1.70462
RightFoot  -31.1187 2.15082 13.4632
RightToes  1.86264e-009 -3.18055e-015 8.94531e-016
Spine  57.0311 -1.71126 7.43574
Spine1  11.6996 6.29803 -12.2617
HEad  -62.6411 -15.4194 13.3919
LeftShoulder1  0 -2.69403e-036 -1.28585e-037
LeftArm  27.5941 7.21238 -83.0841
LeftForeArm  -44.9055 -31.1126 19.1947
LeftHand  0.834979 5.99391 -1.42872
RightShoulder  -2.48481e-017 0 -8.08114e-019
RightArm  -14.1027 34.5646 59.2565
RightForeArm  0.405586 8.31478 -4.29243
RightHand  1.51567 -11.4802 -8.6242
LeftUpLeg  -78.7477 -7.06415 -11.8046
LeftLeg  96.0899 -14.7674 9.8128
LeftFoot  -18.4602 0.0246877 1.75458
LeftToes  -3.27418e-010 -1.10613e-010 -1.08532e-012
